<svg width="90" height="23" viewBox="0 0 90 23" fill="none" xmlns="http://www.w3.org/2000/svg">
<g clip-path="url(#clip0_241_2921)">
<path d="M0.389266 11.7128H6.27561C8.79682 11.7309 10.8723 13.1632 11.1901 15.6042H11.8218C12.1414 13.1514 14.2356 11.7115 16.7731 11.7115H22.3123V16.711H18.4253V17.2553H22.5839C22.656 17.2553 22.7253 17.2266 22.7763 17.1755C22.8273 17.1244 22.856 17.0551 22.856 16.9828V11.4372C22.856 11.3649 22.8273 11.2956 22.7763 11.2445C22.7253 11.1934 22.656 11.1647 22.5839 11.1647H16.7724C14.235 11.1647 12.1407 9.72737 11.8211 7.27138H11.1894C10.8698 9.72487 8.7756 11.1647 6.23816 11.1647H0.664551C0.686398 9.54362 0.721345 6.99015 0.733205 6.16524H4.58836V5.62032H0.509106C0.495887 5.61827 0.482536 5.61722 0.469159 5.61719C0.393629 5.61719 0.22322 5.64407 0.197627 5.89279C0.197627 5.89841 0.197627 5.90404 0.197627 5.90904C0.197627 5.91404 0.197627 5.93402 0.197627 5.94714L0.185759 6.75268C0.178269 7.27262 0.16891 7.9663 0.159547 8.65997L0.122096 11.434C0.121603 11.4701 0.128249 11.5059 0.141641 11.5394C0.155033 11.5728 0.174906 11.6033 0.200123 11.629C0.250309 11.6799 0.317906 11.7098 0.389266 11.7128Z" fill="#1B2A4E"/>
<path d="M7.22949 17.3776H15.7812V16.5977H7.22949V17.3776Z" fill="#1B2A4E"/>
<path d="M3.13991 23.0002H3.17238C3.95642 23.0068 4.71536 22.7237 5.30408 22.2053C5.63667 21.9116 5.90265 21.5501 6.08417 21.1451C6.2657 20.74 6.35855 20.3008 6.35651 19.8568V12.7051H5.57748V19.8568C5.57925 20.1984 5.50623 20.5362 5.36355 20.8465C5.22087 21.1568 5.012 21.4321 4.75164 21.6529C4.31177 22.0243 3.75345 22.2257 3.17799 22.2203H3.13931C2.7981 22.2221 2.46064 22.149 2.15069 22.0061C1.84074 21.8633 1.56583 21.6542 1.3453 21.3935C0.974229 20.9531 0.773144 20.3942 0.778514 19.818V19.7793C0.773144 19.2032 0.974229 18.6442 1.3453 18.2038C1.56586 17.9432 1.84079 17.7341 2.15073 17.5913C2.46067 17.4484 2.79811 17.3753 3.13931 17.3771H4.70358V16.5984H3.13931C2.69586 16.5963 2.25709 16.6893 1.85249 16.871C1.44789 17.0528 1.0868 17.3191 0.793487 17.652C0.275999 18.2414 -0.00644906 19.0009 0.000111783 19.7856V19.8124C-0.00643067 20.5974 0.276258 21.3572 0.794116 21.9466C1.08741 22.2796 1.44849 22.5459 1.8531 22.7276C2.25771 22.9094 2.69646 23.0023 3.13991 23.0002Z" fill="#1B2A4E"/>
<path d="M7.22949 6.28188H15.7812V5.50195H7.22949V6.28188Z" fill="#1B2A4E"/>
<path d="M6.3567 3.20324C6.36635 2.59848 6.59717 2.01825 7.00543 1.57242C7.4137 1.1266 7.97109 0.846137 8.57205 0.784124C8.89743 0.761883 9.2239 0.806759 9.53125 0.915965C9.83861 1.02517 10.1203 1.19639 10.3589 1.41901C10.5975 1.64163 10.7878 1.91091 10.9182 2.21019C11.0486 2.50946 11.1163 2.83235 11.117 3.15886V4.62808H11.8935V3.15886C11.8935 2.32004 11.5607 1.51559 10.9682 0.922449C10.3757 0.329313 9.57219 -0.00390625 8.73433 -0.00390625C7.89647 -0.00390625 7.09295 0.329313 6.50049 0.922449C5.90803 1.51559 5.5752 2.32004 5.5752 3.15886V10.1731H6.35421L6.3567 3.20324Z" fill="#1B2A4E"/>
<path d="M21.9985 0.865069C21.399 0.301741 20.6054 -0.00810544 19.7832 0.00016126C19.2099 -0.00328397 18.6473 0.155508 18.1602 0.458238C17.7028 0.741624 17.3252 1.13713 17.0631 1.60735C16.8009 2.07756 16.6629 2.60696 16.6621 3.14546V10.1816H17.4411V3.14357C17.4424 2.73865 17.5467 2.34073 17.7441 1.98735C17.9416 1.63396 18.2257 1.33676 18.5697 1.12379C18.9385 0.895322 19.3645 0.776157 19.7982 0.780087C20.4175 0.773435 21.0155 1.00649 21.4673 1.43063C21.8096 1.75615 22.0465 2.17692 22.1475 2.63862C22.2485 3.10031 22.2089 3.58171 22.0338 4.02064C21.8588 4.45958 21.5563 4.83588 21.1654 5.10096C20.7746 5.36604 20.3133 5.50773 19.8412 5.5077H18.3125V6.28761H19.8412C20.469 6.28758 21.0824 6.09915 21.6021 5.74665C22.1219 5.39414 22.5241 4.89375 22.757 4.31007C22.9898 3.7264 23.0425 3.08623 22.9083 2.47225C22.7741 1.85828 22.4592 1.29868 22.0041 0.865698L21.9985 0.865069Z" fill="#1B2A4E"/>
<path d="M16.6565 19.7556C16.6498 20.3746 16.4099 20.9682 15.9848 21.4177C15.5597 21.8671 14.9807 22.1393 14.3637 22.1797C14.044 22.1915 13.7252 22.1386 13.4263 22.0242C13.1275 21.9098 12.8547 21.7363 12.6244 21.514C12.3941 21.2916 12.2109 21.0251 12.0858 20.7303C11.9606 20.4355 11.8962 20.1184 11.8962 19.7981V18.2514H11.1172V19.7981C11.1161 20.2136 11.1973 20.6251 11.356 21.0089C11.5148 21.3927 11.7481 21.7412 12.0423 22.0341L12.0579 22.0498C12.6476 22.6349 13.4448 22.9623 14.2751 22.9603H14.32C15.1491 22.9454 15.9393 22.6061 16.5215 22.0151C17.1037 21.424 17.4316 20.6282 17.4349 19.7981V12.707H16.6559L16.6565 19.7556Z" fill="#1B2A4E"/>
<path d="M37.3804 5.77709L34.4329 14.0381L31.4991 5.79586L29.2207 5.80333L33.378 17.4071L35.4947 17.4002L39.6439 5.77148L37.3804 5.77709Z" fill="#1B2A4E"/>
<path d="M46.245 8.58015V9.51755C45.8979 9.14962 45.4789 8.85712 45.014 8.65823C44.5491 8.45933 44.0484 8.35828 43.5428 8.3614C41.3125 8.36827 39.5079 10.2187 39.5166 12.9047C39.5247 15.5419 41.4373 17.4129 43.6196 17.4042C44.1158 17.4087 44.6074 17.3096 45.0632 17.1131C45.5189 16.9166 45.9286 16.6271 46.2663 16.2631V17.1692L48.4155 17.1623L48.3886 8.57137L46.245 8.58015ZM44.0041 15.4313C43.6816 15.426 43.3635 15.3547 43.0695 15.2218C42.7755 15.0888 42.5117 14.8971 42.2945 14.6583C42.0773 14.4195 41.9112 14.1388 41.8064 13.8333C41.7016 13.5279 41.6603 13.2042 41.6852 12.8822C41.6808 11.4748 42.5659 10.3393 43.9885 10.3343C44.6307 10.3806 45.2317 10.668 45.6711 11.1392C46.1105 11.6103 46.3559 12.2304 46.3579 12.875C46.36 13.5195 46.1186 14.1411 45.6822 14.6151C45.2458 15.089 44.6466 15.3803 44.0047 15.4306L44.0041 15.4313Z" fill="#1B2A4E"/>
<path d="M53.8025 11.9662L53.0091 11.5644C52.5397 11.3231 52.232 11.1788 52.2314 10.8551C52.2314 10.5151 52.5691 10.3363 53.0054 10.3351C53.5865 10.3887 54.1227 10.671 54.496 11.12L55.8169 9.77328C55.4895 9.33062 55.0623 8.97169 54.57 8.7258C54.0777 8.47992 53.5343 8.35407 52.9842 8.35845C52.6379 8.33311 52.29 8.37784 51.9614 8.49001C51.6328 8.60217 51.3301 8.77947 51.0713 9.0113C50.8126 9.24314 50.6032 9.52476 50.4556 9.83938C50.3079 10.154 50.2251 10.4952 50.212 10.8425C50.2151 11.9262 50.913 12.7661 52.2888 13.4573L53.0173 13.8272C53.6165 14.1328 53.9723 14.4065 53.9735 14.779C53.9735 15.1671 53.5553 15.4758 53.0222 15.4777C52.3147 15.3954 51.6686 15.0359 51.2251 14.4778L49.9043 15.9376C50.2518 16.4057 50.7068 16.7831 51.2309 17.0377C51.7549 17.2924 52.3326 17.4169 52.9149 17.4006C54.7875 17.395 55.9979 16.242 55.9935 14.7053C55.9892 13.4323 55.227 12.6899 53.8025 11.9662Z" fill="#1B2A4E"/>
<path d="M59.6091 8.80965L57.46 8.81641L57.4869 17.4079L59.6361 17.4012L59.6091 8.80965Z" fill="#1B2A4E"/>
<path d="M58.515 4.99839C58.339 4.99441 58.1639 5.0252 57.9998 5.08902C57.8356 5.15284 57.6857 5.24843 57.5585 5.37032C57.4313 5.49221 57.3293 5.63798 57.2585 5.79935C57.1876 5.96072 57.1492 6.1345 57.1455 6.31073C57.1386 6.49881 57.1687 6.68641 57.2342 6.86281C57.2998 7.03921 57.3994 7.20096 57.5274 7.33879C57.6554 7.47663 57.8093 7.58787 57.9802 7.66614C58.1512 7.74441 58.3359 7.78818 58.5237 7.79495C58.7042 7.79445 58.8828 7.75834 59.0493 7.68872C59.2158 7.61909 59.367 7.51733 59.4942 7.38918C59.6213 7.26103 59.722 7.10902 59.7905 6.94188C59.859 6.77474 59.8939 6.59574 59.8933 6.41509C59.8961 6.23136 59.8626 6.0489 59.7948 5.87815C59.727 5.70741 59.6261 5.55173 59.4981 5.4201C59.37 5.28846 59.2173 5.18347 59.0486 5.1111C58.8798 5.03873 58.6985 5.00043 58.515 4.99839Z" fill="#1B2A4E"/>
<path d="M65.2324 8.80387L63.9558 8.80761L63.9458 5.63672L61.7967 5.64358L61.8066 8.81451L60.708 8.81764L60.7136 10.6624L61.8123 10.6593L61.8335 17.4085L63.9827 17.4017L63.9614 10.6524L65.238 10.648L65.2324 8.80387Z" fill="#1B2A4E"/>
<path d="M71.7938 8.60001L71.8082 13.1789C71.8126 14.635 71.3463 15.4287 70.199 15.433C69.0679 15.4368 68.5803 14.6293 68.576 13.092L68.5623 8.61L66.4131 8.61686L66.4249 12.5483C66.3969 13.1538 66.426 13.7606 66.5117 14.3606C66.8575 16.366 68.1347 17.4134 70.2058 17.4072C70.7182 17.443 71.2322 17.3635 71.7098 17.1743C72.1875 16.9852 72.6168 16.6912 72.9661 16.3142C73.8681 15.308 73.9611 14.1432 73.9561 12.5577L73.9436 8.59375L71.7938 8.60001Z" fill="#1B2A4E"/>
<path d="M88.6021 9.55257C88.3169 9.2263 87.9628 8.96765 87.5654 8.79536C87.168 8.62307 86.7372 8.54146 86.3044 8.55643C85.7343 8.55025 85.1719 8.68881 84.6698 8.95918C84.1677 9.22955 83.7421 9.62291 83.433 10.1025C83.2072 9.63184 82.85 9.23683 82.4045 8.9654C81.959 8.69397 81.4443 8.55775 80.923 8.57329C80.4156 8.57579 79.9144 8.686 79.4526 8.89659C78.9908 9.10718 78.5788 9.41339 78.2439 9.79504V8.80829L76.0947 8.81515L76.1216 17.4061L78.2708 17.3992L78.2576 13.1928C78.252 11.4292 79.0248 10.5531 80.0916 10.55C81.2876 10.5462 81.6141 11.5642 81.6191 13.2309L81.6322 17.3892L83.7813 17.3823L83.7676 13.1434C83.762 11.3799 84.5347 10.5362 85.6177 10.5325C86.5872 10.5325 87.0903 11.2237 87.0953 12.631L87.1103 17.3717L89.2594 17.3648L89.2438 12.3329C89.2376 11.2011 89.1702 10.2631 88.6021 9.55257Z" fill="#1B2A4E"/>
</g>
<defs>
<clipPath id="clip0_241_2921">
<rect width="89.2591" height="23" fill="white"/>
</clipPath>
</defs>
</svg>
